<?xml version="1.0" encoding="UTF-8"?>
<svg version="1.1" xmlns="http://www.w3.org/2000/svg" width="486" height="513">
<path d="M0 0 C0.14870119 4.75043103 0.25737512 9.49949856 0.32958984 14.25170898 C0.35970087 15.86685796 0.40060063 17.48184423 0.45263672 19.09643555 C0.52571534 21.42277163 0.5595088 23.74694148 0.5859375 26.07421875 C0.61690521 26.79212082 0.64787292 27.51002289 0.67977905 28.24967957 C0.68253512 32.38711124 0.18740374 33.80637351 -2.7277832 36.81835938 C-5.43168797 38.62109704 -8.06925447 40.31815538 -10.94140625 41.83203125 C-11.84842285 42.31647705 -12.75543945 42.80092285 -13.68994141 43.30004883 C-15.11185791 44.04871216 -15.11185791 44.04871216 -16.5625 44.8125 C-23.89932273 48.74109093 -31.07934764 52.76816394 -38.125 57.19921875 C-46.56085695 62.48309111 -55.26087504 67.23320457 -64 72 C-64.33 133.71 -64.66 195.42 -65 259 C-70.64883433 260.12976687 -71.15156129 259.78247844 -75.75 256.875 C-76.801875 256.2253125 -77.85375 255.575625 -78.9375 254.90625 C-80.4534375 253.96265625 -80.4534375 253.96265625 -82 253 C-84.21235096 251.75555259 -86.43908485 250.5430964 -88.671875 249.3359375 C-89.82429688 248.67464844 -89.82429688 248.67464844 -91 248 C-91.96138885 247.6435149 -91.96138885 247.6435149 -92.94219971 247.27982807 C-95.5020997 246.12322379 -97.10249104 245.08932955 -99 243 C-100.23606845 238.26627149 -100.07059866 233.52161675 -100 228.6628418 C-100.00760899 227.18426899 -100.01873032 225.7057107 -100.03309631 224.22718811 C-100.06210341 220.21880422 -100.04200509 216.21199473 -100.0130806 212.20366645 C-99.99119228 208.01286784 -100.01447247 203.82232597 -100.03295898 199.63154602 C-100.06109254 191.69832857 -100.04861148 183.7657157 -100.02153492 175.83251554 C-99.9926835 166.79983751 -100.0091141 157.76741939 -100.02934647 148.73473871 C-100.06994598 130.15633219 -100.05368635 111.57836125 -100 93 C-103.21571864 94.76142847 -106.43022802 96.52505266 -109.64453125 98.2890625 C-110.55078247 98.78543213 -111.45703369 99.28180176 -112.39074707 99.79321289 C-117.64313058 102.67729679 -122.83472166 105.62779666 -127.9453125 108.7578125 C-129.95915354 109.97530575 -131.99821264 111.12048427 -134.0625 112.25 C-138.61086144 114.75159879 -143.08735893 117.37046217 -147.5625 120 C-148.27092041 120.41540039 -148.97934082 120.83080078 -149.70922852 121.25878906 C-153.96354521 123.76474968 -158.138572 126.35228656 -162.25366211 129.08203125 C-164 130 -164 130 -167 130 C-167 130.66 -167 131.32 -167 132 C-168.010625 132.474375 -169.02125 132.94875 -170.0625 133.4375 C-173.04612704 134.89995762 -175.86207344 136.5195924 -178.66015625 138.3046875 C-179.31169678 138.71533447 -179.9632373 139.12598145 -180.63452148 139.54907227 C-181.94647472 140.38181579 -183.24973746 141.22843505 -184.54321289 142.08959961 C-187.50579807 143.95808117 -189.53782902 145.00117451 -193.07421875 144.9921875 C-196.48931777 143.83406313 -199.16635779 142.28281013 -202.1875 140.3125 C-203.32128415 139.58339261 -204.45673288 138.85686784 -205.59375 138.1328125 C-206.15964844 137.77219727 -206.72554687 137.41158203 -207.30859375 137.04003906 C-210.71837991 134.94337494 -214.2930072 133.1445688 -217.85546875 131.32421875 C-220 130 -220 130 -222 127 C-217.59028946 123.1740597 -212.75700784 120.45944202 -207.6875 117.625 C-205.78587626 116.55050866 -203.88485717 115.47494667 -201.984375 114.3984375 C-200.50420898 113.56070801 -200.50420898 113.56070801 -198.99414062 112.70605469 C-194.11826897 109.92779383 -189.27878936 107.08795552 -184.4375 104.25 C-177.91819417 100.43119104 -171.38586622 96.63804985 -164.81640625 92.90625 C-164.21190643 92.56280548 -163.60740662 92.21936096 -162.98458862 91.86550903 C-161.76382595 91.17205793 -160.54305163 90.47862732 -159.32226562 89.78521729 C-150.44985117 84.74485616 -141.64390637 79.64193171 -133.03271484 74.16308594 C-128.77847786 71.46121135 -124.45944622 68.97617766 -120.01171875 66.609375 C-115.34545826 64.11586096 -110.73176602 61.52855026 -106.11035156 58.953125 C-102.21488558 56.78341664 -98.31551045 54.62202281 -94.40234375 52.484375 C-86.35855143 48.07767046 -78.44943646 43.54741307 -70.73974609 38.57421875 C-66.2751204 35.7133671 -61.68464743 33.16046471 -57.01879883 30.64257812 C-51.48835483 27.63337253 -46.02828244 24.49962921 -40.5625 21.375 C-39.95826202 21.03016571 -39.35402405 20.68533142 -38.73147583 20.33004761 C-29.73030336 15.19030865 -20.7954462 9.95287573 -11.95336914 4.54248047 C-10.82983032 3.85822998 -10.82983032 3.85822998 -9.68359375 3.16015625 C-9.03962646 2.76449463 -8.39565918 2.36883301 -7.73217773 1.96118164 C-5.05332829 0.47469394 -3.06678648 0 0 0 Z M-18.84375 23.1953125 C-19.58995605 23.66098633 -20.33616211 24.12666016 -21.10498047 24.60644531 C-21.89533691 25.10756836 -22.68569336 25.60869141 -23.5 26.125 C-29.39401847 29.79867706 -35.29614783 33.34565665 -41.4296875 36.609375 C-45.24089649 38.67136649 -48.96071747 40.88368129 -52.6875 43.09375 C-55.47942451 44.70042354 -58.28928988 46.25072255 -61.12109375 47.78515625 C-67.1614238 51.06774493 -73.11529241 54.48973066 -79.0625 57.9375 C-80.7724854 58.92692784 -82.48247262 59.91635253 -84.19256592 60.90559387 C-85.36653457 61.58477314 -86.54040292 62.2641258 -87.71417236 62.94364929 C-91.72826474 65.2669319 -95.74756324 67.58099159 -99.76953125 69.890625 C-110.71960829 76.18253315 -121.62046318 82.53806483 -132.43017578 89.06835938 C-137.3158964 92.0125134 -142.23872293 94.84425878 -147.26953125 97.53515625 C-158.00108213 103.29242603 -168.49996762 109.4327714 -178.90991211 115.75048828 C-179.70147705 116.2298584 -180.49304199 116.70922852 -181.30859375 117.203125 C-182.08058105 117.67169922 -182.85256836 118.14027344 -183.64794922 118.62304688 C-186.75913662 120.44441878 -189.95305514 122.0955567 -193.17211914 123.71777344 C-195.32478839 125.22783339 -196.02545499 126.58986911 -197 129 C-193.28602945 130.1554575 -191.15754258 130.47535448 -187.5078125 128.9765625 C-184.61971248 127.39438597 -181.80812405 125.72002272 -179 124 C-177.1263713 122.91429673 -175.25133648 121.8310169 -173.375 120.75 C-169.97918971 118.75784942 -166.58858761 116.75698507 -163.19921875 114.75390625 C-154.33659845 109.52120592 -145.43459271 104.36509376 -136.48266602 99.28637695 C-129.71805967 95.44053277 -123.04341411 91.45710795 -116.39379883 87.41625977 C-110.36229403 83.75213166 -104.22721793 80.31987328 -98 77 C-96.88625 76.401875 -95.7725 75.80375 -94.625 75.1875 C-92.04867779 74.02202091 -89.76741082 73.50442772 -87 73 C-87.00645255 73.83029567 -87.0129051 74.66059134 -87.01955318 75.51604748 C-87.17410093 95.71306686 -87.28995889 115.90998442 -87.3626852 136.10747051 C-87.39878949 145.87484144 -87.44801725 155.64181784 -87.52807617 165.40893555 C-87.59781747 173.92136594 -87.6430006 182.43351064 -87.65861946 190.94621879 C-87.66775058 195.45437566 -87.68922804 199.96171517 -87.7401104 204.46961021 C-87.7876139 208.71252055 -87.80228349 212.95427675 -87.79175377 217.19742775 C-87.79368008 218.75473427 -87.80761268 220.31207924 -87.83443832 221.86915588 C-88.29373069 229.89539996 -88.29373069 229.89539996 -85.45851326 237.05848122 C-83.09859203 238.82097007 -80.99990622 240 -78 240 C-78 182.25 -78 124.5 -78 65 C-76.68 64.34 -75.36 63.68 -74 63 C-69.9835103 60.80051198 -65.99429057 58.55200597 -62 56.3125 C-60.92621094 55.71244141 -59.85242188 55.11238281 -58.74609375 54.49414062 C-53.45229288 51.52872028 -48.17998173 48.53356076 -42.9453125 45.46484375 C-38.94506527 43.12017762 -34.92200981 40.82711291 -30.8671875 38.578125 C-29.8771875 38.02769531 -28.8871875 37.47726563 -27.8671875 36.91015625 C-25.83589387 35.78313302 -23.8019393 34.66089507 -21.765625 33.54296875 C-20.78851563 32.99769531 -19.81140625 32.45242187 -18.8046875 31.890625 C-17.92796387 31.40625977 -17.05124023 30.92189453 -16.14794922 30.42285156 C-13.73721565 29.02543181 -13.73721565 29.02543181 -12 26 C-11.83286431 23.37468476 -11.83286431 23.37468476 -12 21 C-15.30308635 21 -16.13133417 21.48010837 -18.84375 23.1953125 Z " fill="#AF8048" transform="translate(328,87)"/>
<path d="M0 0 C0 45.54 0 91.08 0 138 C1.65 138.66 3.3 139.32 5 140 C11.95640404 143.53983459 18.60761341 147.70483583 25.30603027 151.70227051 C34.72654467 157.32158214 44.17249351 162.8820318 53.765625 168.203125 C59.5708475 171.42824861 65.29319307 174.75065931 70.9375 178.25 C71.52595703 178.61351562 72.11441406 178.97703125 72.72070312 179.3515625 C74.14777958 180.23333332 75.57398482 181.1165139 77 182 C75.54125245 185.79274363 73.83326985 186.94776369 70.25 188.75 C66.89843792 190.47214652 63.5949241 192.2145309 60.37109375 194.1640625 C59.75911133 194.53047852 59.14712891 194.89689453 58.51660156 195.27441406 C57.3214517 195.99354588 56.13168468 196.7217214 54.94824219 197.45996094 C51.12908557 199.72668678 48.4199449 200.50690277 44 200 C40.625 198.5 40.625 198.5 38 197 C38 196.34 38 195.68 38 195 C37.43555176 194.8868042 36.87110352 194.7736084 36.28955078 194.65698242 C33.70671659 193.91584286 31.69364685 192.83206491 29.3671875 191.48828125 C28.03300781 190.72161133 28.03300781 190.72161133 26.671875 189.93945312 C25.74890625 189.40255859 24.8259375 188.86566406 23.875 188.3125 C22.97523438 187.79494141 22.07546875 187.27738281 21.1484375 186.74414062 C16.62499394 184.13471162 12.1287759 181.48481443 7.65625 178.7890625 C4.35166051 176.79868734 1.03106206 174.87575957 -2.375 173.0625 C-11.75053119 167.99786185 -20.87676366 162.50240251 -30 157 C-31.28842017 156.38592206 -31.28842017 156.38592206 -32.60286903 155.75943851 C-35 154 -35 154 -35.61803246 151.51248074 C-35.61472231 150.51493299 -35.61141216 149.51738523 -35.60800171 148.48960876 C-35.61632019 147.34405014 -35.62463867 146.19849152 -35.63320923 145.01821899 C-35.61680389 143.76044647 -35.60039856 142.50267395 -35.58349609 141.20678711 C-35.58372277 139.86970314 -35.58613639 138.532618 -35.59057617 137.19554138 C-35.59628898 133.56315134 -35.57097079 129.931562 -35.53990126 126.29932475 C-35.51238385 122.50195134 -35.51236263 118.70457732 -35.50918579 114.90711975 C-35.49997873 108.53063068 -35.47243478 102.15444135 -35.43212891 95.77807617 C-35.37529659 86.77886591 -35.35298028 77.77980655 -35.33684421 68.78044498 C-35.32439623 62.55407628 -35.30371387 56.32773057 -35.2814641 50.10139012 C-35.2760989 48.58971079 -35.27096265 47.07803062 -35.26605177 45.56634974 C-35.25176306 41.25815987 -35.23235631 36.95005643 -35.20457458 32.64193153 C-35.19314465 30.7100549 -35.18649479 28.77815185 -35.17996216 26.84625244 C-35.17136169 25.70351364 -35.16276123 24.56077484 -35.15390015 23.38340759 C-35.14832785 22.38623687 -35.14275555 21.38906614 -35.13701439 20.36167812 C-35 18 -35 18 -34 16 C-32.49053126 15.09014236 -30.94017364 14.24778901 -29.375 13.4375 C-23.83913585 10.49906621 -18.47888839 7.33079702 -13.12841797 4.07202148 C-11.42498263 3.03800239 -9.71285289 2.01834298 -8 1 C-7.27683594 0.56171875 -6.55367187 0.1234375 -5.80859375 -0.328125 C-4 -1 -4 -1 0 0 Z M-22 24 C-22 64.59 -22 105.18 -22 147 C-18.37 148.98 -14.74 150.96 -11 153 C-6.90234375 155.5390625 -6.90234375 155.5390625 -4.97607422 156.76660156 C-1.24520298 159.09528472 2.60673992 161.21618633 6.4375 163.375 C12.58286941 166.84559432 18.67052622 170.38602106 24.68359375 174.08203125 C26.3543396 175.10514404 26.3543396 175.10514404 28.05883789 176.14892578 C30.23216994 177.48495778 32.39958974 178.83066624 34.56030273 180.18701172 C41.77271117 184.76973178 41.77271117 184.76973178 50 186 C51.96431405 184.70735301 51.96431405 184.70735301 53 183 C43.34311989 175.60767129 32.59743698 169.90617481 22 164 C21.17421479 163.53623018 20.34842958 163.07246037 19.49762058 162.59463692 C14.73313873 159.95105609 9.97994866 157.52464576 4.98118591 155.35324097 C-10.06417002 148.31566589 -10.06417002 148.31566589 -13.2914238 141.12094879 C-15.15858871 133.35469916 -14.86078858 125.47212218 -14.53398967 117.54127741 C-14.41709995 114.10374785 -14.43279981 110.66666231 -14.43348694 107.22750854 C-14.41511386 100.73620738 -14.28027157 94.25295132 -14.10182053 87.76429164 C-13.90424089 80.369242 -13.8391046 72.97479418 -13.78420055 65.57752442 C-13.66848807 50.3812115 -13.38934758 35.19195438 -13 20 C-16.05429524 19.83462035 -16.05429524 19.83462035 -22 24 Z " fill="#AF8148" transform="translate(220,194)"/>
<path d="M0 0 C0 0.99 0 1.98 0 3 C0.66 3 1.32 3 2 3 C2 3.99 2 4.98 2 6 C0.02 6.66 -1.96 7.32 -4 8 C-3.99907821 8.92729479 -3.99815641 9.85458958 -3.99720669 10.80998421 C-3.97501086 33.36916557 -3.95857599 55.92834551 -3.94818783 78.48753548 C-3.94303072 89.3969677 -3.93599912 100.30639272 -3.92456055 111.21582031 C-3.91459588 120.72404831 -3.90814231 130.23227108 -3.90591151 139.74050415 C-3.90460744 144.77539521 -3.90154072 149.81027134 -3.89426994 154.84515762 C-3.88748164 159.58434153 -3.88538878 164.32350434 -3.88689232 169.06269264 C-3.88661726 170.80173545 -3.8846288 172.54077897 -3.88079453 174.27981758 C-3.87581342 176.65557523 -3.87701803 179.03125342 -3.87974548 181.40701294 C-3.87683264 182.09379753 -3.8739198 182.78058213 -3.87091869 183.48817837 C-3.88312644 187.42718801 -4.24617843 191.13443379 -5 195 C-14.36341296 195.12902341 -20.30153105 192.05927843 -28 187 C-28.66320755 186.74144635 -29.3264151 186.4828927 -30.00971985 186.2165041 C-32.5483832 185.08366559 -34.12421603 184.06968218 -36 182 C-37.23294614 177.26525297 -37.07060162 172.52182008 -37 167.6628418 C-37.00760899 166.18426899 -37.01873032 164.7057107 -37.03309631 163.22718811 C-37.06210341 159.21880422 -37.04200509 155.21199473 -37.0130806 151.20366645 C-36.99119228 147.01286784 -37.01447247 142.82232597 -37.03295898 138.63154602 C-37.06109254 130.69832857 -37.04861148 122.7657157 -37.02153492 114.83251554 C-36.9926835 105.79983751 -37.0091141 96.76741939 -37.02934647 87.73473871 C-37.06994598 69.15633219 -37.05368635 50.57836125 -37 32 C-40.21571864 33.76142847 -43.43022802 35.52505266 -46.64453125 37.2890625 C-47.55078247 37.78543213 -48.45703369 38.28180176 -49.39074707 38.79321289 C-54.64313058 41.67729679 -59.83472166 44.62779666 -64.9453125 47.7578125 C-66.95915354 48.97530575 -68.99821264 50.12048427 -71.0625 51.25 C-75.61086144 53.75159879 -80.08735893 56.37046217 -84.5625 59 C-85.27092041 59.41540039 -85.97934082 59.83080078 -86.70922852 60.25878906 C-90.96354521 62.76474968 -95.138572 65.35228656 -99.25366211 68.08203125 C-101 69 -101 69 -104 69 C-104 69.66 -104 70.32 -104 71 C-108.25315564 72.6491828 -110.6648225 73.49974625 -114.9375 71.625 C-115.948125 71.08875 -116.95875 70.5525 -118 70 C-117.67 71.65 -117.34 73.3 -117 75 C-118.98 74.67 -120.96 74.34 -123 74 C-122.67 72.35 -122.34 70.7 -122 69 C-121.34 69 -120.68 69 -120 69 C-119.67 68.01 -119.34 67.02 -119 66 C-117.28728011 65.27538774 -115.5720908 64.5555099 -113.83984375 63.87890625 C-110.95620858 62.50137353 -109.11985734 60.3490311 -107 58 C-104.23753535 55.00830956 -101.68361081 53.101395 -98.0625 51.25 C-93.76558033 48.98424742 -89.62038863 46.57340124 -85.5 44 C-80.66363863 40.99083537 -75.76838109 38.18763826 -70.75 35.49609375 C-64.03294708 31.84178797 -57.47615993 27.90001068 -50.9375 23.9375 C-45.71324518 20.7911694 -40.37715998 17.87516913 -35 15 C-33.88625 14.38125 -32.7725 13.7625 -31.625 13.125 C-28.81773997 11.92188856 -27.01026055 11.90939015 -24 12 C-24.00056554 13.24682619 -24.00056554 13.24682619 -24.0011425 14.51884079 C-24.00825568 34.73244437 -23.98239875 54.9457704 -23.9197216 75.15928268 C-23.89020881 84.93437031 -23.87190751 94.70924016 -23.87988281 104.484375 C-23.88680477 113.00315904 -23.8728101 121.52160617 -23.83356392 130.04030728 C-23.81351162 134.55215157 -23.80402502 139.06346654 -23.81957626 143.57534027 C-23.83387898 147.82078646 -23.82024929 152.06521992 -23.78504753 156.31053543 C-23.77706858 157.86979236 -23.77935905 159.4291403 -23.79260826 160.98836136 C-23.8091639 163.1163927 -23.78896286 165.24101623 -23.75949097 167.36883545 C-23.75764738 168.55979198 -23.75580379 169.75074852 -23.75390434 170.97779465 C-23.24992722 174.25694294 -23.24992722 174.25694294 -20.20253181 176.35194778 C-16.97133716 178.16884831 -16.97133716 178.16884831 -13 179 C-12.67 121.91 -12.34 64.82 -12 6 C-11.34 6 -10.68 6 -10 6 C-9.79375 5.38125 -9.5875 4.7625 -9.375 4.125 C-7.2294347 0.80912635 -3.86409553 0 0 0 Z " fill="#AB7A3F" transform="translate(265,148)"/>
<path d="M0 0 C2.64 0 5.28 0 8 0 C8.08159574 4.16138263 7.98248524 7.9472484 7 12 C6.01 12.33 5.02 12.66 4 13 C4 13.99 4 14.98 4 16 C2.68 16.33 1.36 16.66 0 17 C0 17.66 0 18.32 0 19 C1.65 18.67 3.3 18.34 5 18 C5.99 19.98 5.99 19.98 7 22 C-10.86178178 32.3606357 -10.86178178 32.3606357 -19 37 C-20.02054977 37.63419357 -21.04109955 38.26838715 -22.09257507 38.92179871 C-24.93568687 40.57724986 -27.59027789 41.48818738 -30.766922 42.32099915 C-36.78582629 44.24300673 -41.42268586 46.64136451 -45 52 C-48.54222184 64.41759539 -47.40067182 78.09774075 -47.12841392 90.8760736 C-47.03743262 96.0876435 -47.05458413 101.29886214 -47.06001282 106.51106262 C-47.05397737 116.36847467 -46.95142984 126.22239819 -46.81374437 136.07875472 C-46.66165898 147.30474865 -46.61785293 158.53036051 -46.58290613 169.75723493 C-46.5086415 192.83973052 -46.29916261 215.91940062 -46 239 C-50.74755859 240.09716797 -50.74755859 240.09716797 -53.01953125 239.22265625 C-54.6796875 238.1484375 -56.33984375 237.07421875 -58 236 C-56.3125 234.875 -56.3125 234.875 -54 234 C-52.35 234.66 -50.7 235.32 -49 236 C-49 174.29 -49 112.58 -49 49 C-46.69 48.34 -44.38 47.68 -42 47 C-42 46.01 -42 45.02 -42 44 C-42.66 44 -43.32 44 -44 44 C-44 43.01 -44 42.02 -44 41 C-45.29585916 41.42492126 -46.5866044 41.86545882 -47.875 42.3125 C-48.59429687 42.55613281 -49.31359375 42.79976562 -50.0546875 43.05078125 C-52.33994905 43.96335547 -52.33994905 43.96335547 -54 47 C-54.66 47 -55.32 47 -56 47 C-56 104.09 -56 161.18 -56 220 C-57.32 220.33 -58.64 220.66 -60 221 C-60.17314842 198.19058993 -60.27192961 175.38193405 -60.28240681 152.57184601 C-60.28900183 141.98035677 -60.31984435 131.38997876 -60.40795898 120.79882812 C-60.4847075 111.5664364 -60.51576796 102.33520873 -60.49218339 93.10250807 C-60.48128629 88.21416362 -60.49311705 83.32827718 -60.55968666 78.44032288 C-60.62166955 73.83610739 -60.62240986 69.23588331 -60.5768013 64.6315155 C-60.57077335 62.94484339 -60.58685236 61.25792021 -60.62704659 59.57171631 C-60.74220207 54.42668333 -60.65734641 49.90612942 -59 45 C-55.04738113 41.18413532 -51.03782292 39.21303604 -46 37 C-44.28352455 36.01909503 -42.57707338 35.01995677 -40.890625 33.98828125 C-39.34482384 33.09449439 -37.79797367 32.20251893 -36.25 31.3125 C-35.47785156 30.86583984 -34.70570313 30.41917969 -33.91015625 29.95898438 C-26.72745966 25.81419547 -19.49444495 21.78470569 -12.16015625 17.9140625 C-10.12727237 16.81832367 -8.09472444 15.72196138 -6.0625 14.625 C-4.50305664 13.81675781 -4.50305664 13.81675781 -2.91210938 12.9921875 C2.34747161 10.32859361 2.34747161 10.32859361 6.13330078 6.02636719 C6.80079653 3.9240339 6.80079653 3.9240339 7 1 C6.05125 1.515625 5.1025 2.03125 4.125 2.5625 C3.09375 3.036875 2.0625 3.51125 1 4 C0.34 3.67 -0.32 3.34 -1 3 C-0.67 2.01 -0.34 1.02 0 0 Z " fill="#B79264" transform="translate(309,107)"/>
<path d="M0 0 C0 0.99 0 1.98 0 3 C0.66 3 1.32 3 2 3 C2 3.99 2 4.98 2 6 C0.02 6.66 -1.96 7.32 -4 8 C-3.99907821 8.92729479 -3.99815641 9.85458958 -3.99720669 10.80998421 C-3.97501086 33.36916557 -3.95857599 55.92834551 -3.94818783 78.48753548 C-3.94303072 89.3969677 -3.93599912 100.30639272 -3.92456055 111.21582031 C-3.91459588 120.72404831 -3.90814231 130.23227108 -3.90591151 139.74050415 C-3.90460744 144.77539521 -3.90154072 149.81027134 -3.89426994 154.84515762 C-3.88748164 159.58434153 -3.88538878 164.32350434 -3.88689232 169.06269264 C-3.88661726 170.80173545 -3.8846288 172.54077897 -3.88079453 174.27981758 C-3.87581342 176.65557523 -3.87701803 179.03125342 -3.87974548 181.40701294 C-3.87683264 182.09379753 -3.8739198 182.78058213 -3.87091869 183.48817837 C-3.88312644 187.42718801 -4.24617843 191.13443379 -5 195 C-13.65270281 194.82503726 -19.21028282 193.21277397 -25.71875 187.48828125 C-27 186 -27 186 -27 183.5625 C-25.71179042 180.26146294 -23.87256119 178.98869621 -21 177 C-21 177.66 -21 178.32 -21 179 C-18.36 179 -15.72 179 -13 179 C-12.67 121.91 -12.34 64.82 -12 6 C-11.34 6 -10.68 6 -10 6 C-9.690625 5.071875 -9.690625 5.071875 -9.375 4.125 C-7.2294347 0.80912635 -3.86409553 0 0 0 Z " fill="#A67030" transform="translate(265,148)"/>
<path d="M0 0 C0.14870119 4.75043103 0.25737512 9.49949856 0.32958984 14.25170898 C0.35970087 15.86685796 0.40060063 17.48184423 0.45263672 19.09643555 C0.52571534 21.42277163 0.5595088 23.74694148 0.5859375 26.07421875 C0.61690521 26.79212082 0.64787292 27.51002289 0.67977905 28.24967957 C0.68165559 31.06676265 0.57088234 33.31117481 -1.27020264 35.53262329 C-5.09941956 38.77692581 -7.94223435 41 -13 41 C-13.66 40.34 -14.32 39.68 -15 39 C-16.32 39 -17.64 39 -19 39 C-19 37 -19 37 -17 35 C-16.3574765 32.93125966 -16.3574765 32.93125966 -16 31 C-15.01 31 -14.02 31 -13 31 C-12.34 27.37 -11.68 23.74 -11 20 C-13.64 20 -16.28 20 -19 20 C-19 20.721875 -19 21.44375 -19 22.1875 C-20.3792128 26.06653599 -22.66266706 27.10223375 -26.08984375 29.1796875 C-26.72019531 29.45039062 -27.35054688 29.72109375 -28 30 C-28.66 29.67 -29.32 29.34 -30 29 C-29.67 28.34 -29.34 27.68 -29 27 C-29.66 26.67 -30.32 26.34 -31 26 C-31 25.01 -31 24.02 -31 23 C-31.99 23 -32.98 23 -34 23 C-34 22.34 -34 21.68 -34 21 C-32.35 20.67 -30.7 20.34 -29 20 C-28.67 18.68 -28.34 17.36 -28 16 C-27.34 16 -26.68 16 -26 16 C-25.93941406 15.40058594 -25.87882812 14.80117187 -25.81640625 14.18359375 C-24.64245986 11.04370843 -22.89789806 10.53251884 -19.9375 9.0625 C-15.68941766 6.88597927 -11.64819465 4.59383929 -7.65625 1.98046875 C-5.02652856 0.42372327 -3.04997844 0 0 0 Z " fill="#A8763A" transform="translate(328,87)"/>
<path d="M0 0 C0.556875 0.37125 1.11375 0.7425 1.6875 1.125 C0.87568425 1.46613736 0.0638685 1.80727472 -0.77254772 2.15874958 C-3.65311196 3.94096463 -3.65311196 3.94096463 -3.94335651 7.41459179 C-3.97176936 8.80444251 -3.97237401 10.1950188 -3.95173645 11.58500671 C-3.96009213 12.35119428 -3.9684478 13.11738185 -3.97705668 13.90678722 C-3.99905875 16.48218041 -3.98535851 19.05615745 -3.97192383 21.6315918 C-3.98037296 23.47438646 -3.99101519 25.3171722 -4.00369263 27.15994263 C-4.03191789 32.17005955 -4.02935344 37.17974951 -4.02139878 42.18992209 C-4.01828069 47.42305091 -4.0432876 52.65604207 -4.06535339 57.88911438 C-4.10285691 67.80196814 -4.11494511 77.7146847 -4.1179778 87.6276024 C-4.12266179 98.91168322 -4.15556392 110.19562601 -4.19087565 121.47964609 C-4.26288975 144.69474732 -4.29933963 167.9097961 -4.3125 191.125 C-9.06005859 192.22216797 -9.06005859 192.22216797 -11.33203125 191.34765625 C-12.9921875 190.2734375 -14.65234375 189.19921875 -16.3125 188.125 C-14.625 187 -14.625 187 -12.3125 186.125 C-10.6625 186.785 -9.0125 187.445 -7.3125 188.125 C-7.3125 126.415 -7.3125 64.705 -7.3125 1.125 C-2.3125 -0.875 -2.3125 -0.875 0 0 Z " fill="#CFB38F" transform="translate(267.3125,154.875)"/>
<path d="M0 0 C0 0.66 0 1.32 0 2 C-0.66 2 -1.32 2 -2 2 C-2.33 3.32 -2.66 4.64 -3 6 C-4.65 6.33 -6.3 6.66 -8 7 C-8 7.66 -8 8.32 -8 9 C-7.01 9 -6.02 9 -5 9 C-4.34 10.98 -3.68 12.96 -3 15 C-5.81928793 18.05587153 -8.50681955 20.02014698 -12.1875 21.9375 C-16.60225473 24.2573175 -20.93003107 26.67652832 -25.22265625 29.21484375 C-25.80917969 29.47394531 -26.39570313 29.73304688 -27 30 C-27.66 29.67 -28.32 29.34 -29 29 C-29.625 26.9375 -29.625 26.9375 -30 25 C-30.66 25 -31.32 25 -32 25 C-32 24.01 -32 23.02 -32 22 C-33.98 22.33 -35.96 22.66 -38 23 C-38.33 23.99 -38.66 24.98 -39 26 C-41.90092502 27.93395001 -42.89674737 28.30131941 -46.1875 28.625 C-47.445625 28.74875 -48.70375 28.8725 -50 29 C-47.84446953 26.66979942 -45.72267117 25.1213357 -42.95703125 23.57421875 C-42.14145752 23.11370117 -41.32588379 22.65318359 -40.4855957 22.17871094 C-39.60347412 21.68661133 -38.72135254 21.19451172 -37.8125 20.6875 C-35.92638057 19.62494442 -34.04099436 18.56108651 -32.15625 17.49609375 C-31.16109375 16.93390137 -30.1659375 16.37170898 -29.140625 15.79248047 C-25.85945148 13.91978333 -22.59941045 12.01434096 -19.34375 10.09765625 C-18.25473389 9.45675049 -17.16571777 8.81584473 -16.04370117 8.15551758 C-13.90920866 6.89675566 -11.77652001 5.63492931 -9.64575195 4.36987305 C-8.67597412 3.79922119 -7.70619629 3.22856934 -6.70703125 2.640625 C-5.8456958 2.13047852 -4.98436035 1.62033203 -4.09692383 1.09472656 C-2 0 -2 0 0 0 Z " fill="#AD7C41" transform="translate(302,101)"/>
<path d="M0 0 C0.99 0.33 1.98 0.66 3 1 C3 1.99 3 2.98 3 4 C4.32 4.33 5.64 4.66 7 5 C7 5.66 7 6.32 7 7 C4.34771188 8.07525194 1.71631546 9.09456151 -1 10 C-1.12761719 10.61617187 -1.25523437 11.23234375 -1.38671875 11.8671875 C-2.28369412 14.98660505 -4.03483625 15.57146039 -6.8125 17.125 C-7.68519531 17.62257812 -8.55789063 18.12015625 -9.45703125 18.6328125 C-10.29621094 19.08398438 -11.13539063 19.53515625 -12 20 C-12.68449219 20.38929688 -13.36898438 20.77859375 -14.07421875 21.1796875 C-16 22 -16 22 -20 22 C-20 20.68 -20 19.36 -20 18 C-20.66 18 -21.32 18 -22 18 C-22 17.01 -22 16.02 -22 15 C-23.29585916 15.42492126 -24.5866044 15.86545882 -25.875 16.3125 C-26.95394531 16.67794922 -26.95394531 16.67794922 -28.0546875 17.05078125 C-30.33994905 17.96335547 -30.33994905 17.96335547 -32 21 C-32.66 20.67 -33.32 20.34 -34 20 C-34 19.01 -34 18.02 -34 17 C-31.19099073 14.61942716 -27.91605395 12.868777 -24.75 11 C-23.84008301 10.45617676 -22.93016602 9.91235352 -21.99267578 9.35205078 C-16.08969659 5.93056541 -10.88426353 3.52238816 -4.1171875 2.4296875 C-1.79261371 2.16083874 -1.79261371 2.16083874 0 0 Z " fill="#A67131" transform="translate(287,133)"/>
<path d="M0 0 C-0.165 0.94875 -0.33 1.8975 -0.5 2.875 C-1.0526635 5.80168901 -1.0526635 5.80168901 -1 8 C-1.99 8.495 -1.99 8.495 -3 9 C-3 10.65 -3 12.3 -3 14 C-0.69 14.66 1.62 15.32 4 16 C-1.91891442 19.31459207 -7.64748817 20.56153368 -14.35546875 19.7578125 C-19.26962246 18.34962074 -23.08408253 15.19105615 -27 12 C-21.68399001 6.38021801 -17.4258524 4.02523247 -10 2 C-9.319375 1.62875 -8.63875 1.2575 -7.9375 0.875 C-5.25714205 -0.33548424 -2.90107504 -0.13186705 0 0 Z " fill="#A67130" transform="translate(133,203)"/>
<path d="M0 0 C4.13478481 1.53111393 7.9250004 3.51591284 11.75 5.6875 C12.41451172 6.06326172 13.07902344 6.43902344 13.76367188 6.82617188 C20.14725736 10.46498644 26.46991 14.20785492 32.77941895 17.97329712 C34.49216414 18.99532419 36.2065283 20.01463654 37.92089844 21.03393555 C38.96793945 21.66211182 40.01498047 22.29028809 41.09375 22.9375 C42.03927734 23.50339844 42.98480469 24.06929688 43.95898438 24.65234375 C44.63251953 25.09707031 45.30605469 25.54179687 46 26 C46 26.33 46 26.66 46 27 C44.35 27 42.7 27 41 27 C41 26.34 41 25.68 41 25 C38.69 24.67 36.38 24.34 34 24 C34.495 25.485 34.495 25.485 35 27 C33.3603125 27.2165625 33.3603125 27.2165625 31.6875 27.4375 C28.06877013 27.88288104 28.06877013 27.88288104 25 29 C22.328125 27.70703125 22.328125 27.70703125 19.25 25.8125 C18.1878125 25.16796875 17.125625 24.5234375 16.03125 23.859375 C15.0309375 23.24578125 14.030625 22.6321875 13 22 C11.58729503 21.18063112 10.17152179 20.36647544 8.75 19.5625 C7.8425 19.046875 6.935 18.53125 6 18 C6.66 17.01 7.32 16.02 8 15 C9.98 15.66 11.96 16.32 14 17 C14 17.66 14 18.32 14 19 C16.49552484 18.21869929 16.49552484 18.21869929 19 17 C19.33 16.01 19.66 15.02 20 14 C18.02 13.34 16.04 12.68 14 12 C14 11.01 14 10.02 14 9 C12.88625 8.9175 11.7725 8.835 10.625 8.75 C9.42875 8.5025 8.2325 8.255 7 8 C5.875 6 5.875 6 5 4 C2.44480079 3.18828772 2.44480079 3.18828772 0 3 C0 2.01 0 1.02 0 0 Z " fill="#AF8149" transform="translate(217,352)"/>
<path d="M0 0 C4.91923996 1.75828256 9.33874556 4.32009807 13.875 6.875 C15.04095703 7.52662109 15.04095703 7.52662109 16.23046875 8.19140625 C18.48985589 9.45590359 20.74566053 10.72652907 23 12 C23.62237549 12.350625 24.24475098 12.70125 24.88598633 13.0625 C28.95964673 15.37115373 32.95874675 17.78326435 36.9375 20.25 C37.52595703 20.61351562 38.11441406 20.97703125 38.72070312 21.3515625 C40.14777958 22.23333332 41.57398482 23.1165139 43 24 C42.1328125 25.953125 42.1328125 25.953125 41 28 C38.875 28.75 38.875 28.75 37 29 C37 27.02 37 25.04 37 23 C36.175 22.7525 35.35 22.505 34.5 22.25 C30.47626529 20.81295189 26.78020976 18.97645485 23 17 C23 16.34 23 15.68 23 15 C20.03 14.505 20.03 14.505 17 14 C17 14.66 17 15.32 17 16 C15.35 16.66 13.7 17.32 12 18 C12 18.66 12 19.32 12 20 C7.95698825 18.51481201 4.38853744 16.57122002 0.6875 14.375 C-0.38113281 13.74335938 -1.44976562 13.11171875 -2.55078125 12.4609375 C-3.35902344 11.97882813 -4.16726562 11.49671875 -5 11 C-3.68 10.67 -2.36 10.34 -1 10 C-0.67 10.66 -0.34 11.32 0 12 C0.66 12 1.32 12 2 12 C2.5534764 9.92446352 3 8.15634036 3 6 C2.505 5.525625 2.01 5.05125 1.5 4.5625 C0 3 0 3 0 0 Z " fill="#B1834D" transform="translate(254,352)"/>
<path d="M0 0 C1.98 0 3.96 0 6 0 C6 0.99 6 1.98 6 3 C6.66 3 7.32 3 8 3 C8.66 4.32 9.32 5.64 10 7 C6.52467156 12.21299267 0.39089812 15.06263693 -5.5859375 16.71484375 C-9.27901755 17.26083067 -11.25417701 17.4183885 -14.5625 15.5625 C-15.036875 15.046875 -15.51125 14.53125 -16 14 C-15.67 12.68 -15.34 11.36 -15 10 C-15.66 9.67 -16.32 9.34 -17 9 C-11.74567937 6.54053077 -6.69139902 5.09698167 -1 4 C-0.67 2.68 -0.34 1.36 0 0 Z " fill="#AC7C42" transform="translate(264,123)"/>
<path d="M0 0 C2.79794127 0.01798163 5.56201769 0.11890813 8.3515625 0.33203125 C7.3615625 1.32203125 6.3715625 2.31203125 5.3515625 3.33203125 C6.0115625 3.66203125 6.6715625 3.99203125 7.3515625 4.33203125 C7.05371043 7.56427779 6.76701103 8.9579684 4.3125 11.16796875 C-3.52670504 15.83359833 -3.52670504 15.83359833 -7.7734375 15.20703125 C-8.7221875 14.91828125 -9.6709375 14.62953125 -10.6484375 14.33203125 C-10.6484375 13.34203125 -10.6484375 12.35203125 -10.6484375 11.33203125 C-11.9684375 11.00203125 -13.2884375 10.67203125 -14.6484375 10.33203125 C-13.9884375 9.34203125 -13.3284375 8.35203125 -12.6484375 7.33203125 C-11.9884375 7.33203125 -11.3284375 7.33203125 -10.6484375 7.33203125 C-10.3184375 6.34203125 -9.9884375 5.35203125 -9.6484375 4.33203125 C-8.3284375 4.66203125 -7.0084375 4.99203125 -5.6484375 5.33203125 C-5.3803125 4.50703125 -5.1121875 3.68203125 -4.8359375 2.83203125 C-2.6484375 0.33203125 -2.6484375 0.33203125 0 0 Z " fill="#A77438" transform="translate(169.6484375,178.66796875)"/>
<path d="M0 0 C0.66 0.33 1.32 0.66 2 1 C1.67 2.65 1.34 4.3 1 6 C-1.64 6.33 -4.28 6.66 -7 7 C-7.2877467 9.93500458 -7.2877467 9.93500458 -5.8125 11.6875 C-3.44258278 13.40364695 -1.85974334 13.23187108 1 13 C-0.11190476 16.33571429 -0.46320673 16.58417079 -3.375 18.1875 C-3.98085937 18.53167969 -4.58671875 18.87585938 -5.2109375 19.23046875 C-7 20 -7 20 -10 20 C-10.33 18.68 -10.66 17.36 -11 16 C-11.99 16 -12.98 16 -14 16 C-14.33 15.34 -14.66 14.68 -15 14 C-16.31571603 14.2547514 -17.62760376 14.52934141 -18.9375 14.8125 C-19.66839844 14.96332031 -20.39929688 15.11414063 -21.15234375 15.26953125 C-22.06693359 15.63111328 -22.06693359 15.63111328 -23 16 C-23.33 16.99 -23.66 17.98 -24 19 C-27.77977668 21.31940842 -30.56084956 22.39168975 -35 22 C-32.72516888 19.51151828 -30.39954782 17.93858892 -27.46484375 16.29296875 C-26.57216797 15.78830078 -25.67949219 15.28363281 -24.75976562 14.76367188 C-23.82841797 14.24353516 -22.89707031 13.72339844 -21.9375 13.1875 C-10.32157621 7.47221133 -10.32157621 7.47221133 0 0 Z " fill="#A57133" transform="translate(210,174)"/>
<path d="M0 0 C0.00423194 0.77636999 0.00846388 1.55273998 0.01282406 2.35263634 C0.11601751 21.22187293 0.22463814 40.09107107 0.33933926 58.96024132 C0.39467566 68.0851347 0.44815833 77.21003199 0.49731445 86.33496094 C0.54015119 94.28594734 0.58642788 102.23690491 0.63687855 110.18784678 C0.66348361 114.39987384 0.68833678 118.61189516 0.70907402 122.82395554 C0.72863 126.78506054 0.75277063 130.74611064 0.78049088 134.70716667 C0.78986683 136.16406827 0.79754015 137.62098193 0.80341911 139.07790184 C0.81167094 141.06094096 0.82653666 143.04394933 0.84178162 145.02694702 C0.84823417 146.13862936 0.85468672 147.2503117 0.8613348 148.39568138 C0.82542552 150.98337204 0.82542552 150.98337204 2 153 C1.01 152.67 0.02 152.34 -1 152 C-1.33 102.5 -1.66 53 -2 2 C-4.97 3.32 -7.94 4.64 -11 6 C-10.67 4.35 -10.34 2.7 -10 1 C-3.375 0 -3.375 0 0 0 Z " fill="#D3BB9C" transform="translate(230,178)"/>
<path d="M0 0 C0.66 0.33 1.32 0.66 2 1 C3.0209375 1.433125 3.0209375 1.433125 4.0625 1.875 C6 3 6 3 7 6 C6.38125 6.103125 5.7625 6.20625 5.125 6.3125 C2.63473516 6.87525373 2.63473516 6.87525373 1 10 C0.21625 10.2475 -0.5675 10.495 -1.375 10.75 C-5.25565756 12.59793217 -6.10145398 15.20290797 -8 19 C-8.61875 18.814375 -9.2375 18.62875 -9.875 18.4375 C-12.04160178 17.76313824 -12.04160178 17.76313824 -14 19 C-14 15.37 -14 11.74 -14 8 C-13.01 8 -12.02 8 -11 8 C-10.67 7.01 -10.34 6.02 -10 5 C-7.69 5 -5.38 5 -3 5 C-3 4.01 -3 3.02 -3 2 C-2.01 1.34 -1.02 0.68 0 0 Z " fill="#A7702F" transform="translate(201,204)"/>
<path d="M0 0 C0 0.66 0 1.32 0 2 C-0.66 2 -1.32 2 -2 2 C-2.33 3.32 -2.66 4.64 -3 6 C-4.65 6.33 -6.3 6.66 -8 7 C-8 7.66 -8 8.32 -8 9 C-7.01 9 -6.02 9 -5 9 C-4.34 10.98 -3.68 12.96 -3 15 C-4.82748903 17.46313739 -6.22976216 18.83428618 -9.26953125 19.48828125 C-11.51479346 19.72518293 -13.74455578 19.90361349 -16 20 C-15.67 19.01 -15.34 18.02 -15 17 C-15.639375 16.54625 -16.27875 16.0925 -16.9375 15.625 C-19 14 -19 14 -20 12 C-19.01 12 -18.02 12 -17 12 C-16.96712891 11.14148438 -16.96712891 11.14148438 -16.93359375 10.265625 C-15.46374035 6.69861675 -12.31667364 5.49157955 -9.0625 3.75 C-8.41603516 3.38648437 -7.76957031 3.02296875 -7.10351562 2.6484375 C-2.30944549 0 -2.30944549 0 0 0 Z " fill="#AA773B" transform="translate(302,101)"/>
<path d="M0 0 C0.66 0.33 1.32 0.66 2 1 C1.28515625 2.92578125 1.28515625 2.92578125 0 5 C-2.12890625 5.79296875 -2.12890625 5.79296875 -4.5625 6.1875 C-7.57091754 6.50492822 -7.57091754 6.50492822 -10 8 C-7.36 8 -4.72 8 -2 8 C-2.375 9.9375 -2.375 9.9375 -3 12 C-3.99 12.495 -3.99 12.495 -5 13 C-2.525 13.495 -2.525 13.495 0 14 C-4.52874388 17.92491136 -9.60598991 21.37459686 -15 24 C-15.66 23.67 -16.32 23.34 -17 23 C-14.75 20.5 -14.75 20.5 -12 18 C-10.68 18 -9.36 18 -8 18 C-8 17.34 -8 16.68 -8 16 C-9.65 16 -11.3 16 -13 16 C-13.33 15.34 -13.66 14.68 -14 14 C-13.34 14 -12.68 14 -12 14 C-12.33 13.34 -12.66 12.68 -13 12 C-13.804375 12.433125 -13.804375 12.433125 -14.625 12.875 C-19.04023269 14.96642601 -22.22828601 16.45002516 -27 15 C-26.31035156 14.62488281 -25.62070312 14.24976563 -24.91015625 13.86328125 C-20.34977428 11.37978106 -15.79153108 8.89284365 -11.25 6.375 C-10.53199219 5.97796875 -9.81398438 5.5809375 -9.07421875 5.171875 C-7.69023198 4.38996157 -6.31756518 3.58766844 -4.95703125 2.765625 C-3.33603372 1.78968422 -1.67139658 0.88686349 0 0 Z " fill="#AD7D43" transform="translate(302,122)"/>
<path d="M0 0 C0 0.99 0 1.98 0 3 C-1.98 3.33 -3.96 3.66 -6 4 C-5.7525 4.8971875 -5.7525 4.8971875 -5.5 5.8125 C-5 8 -5 8 -5 11 C-5.99 11.33 -6.98 11.66 -8 12 C-7.67 12.99 -7.34 13.98 -7 15 C-7.99 15.99 -8.98 16.98 -10 18 C-12.97 17.01 -15.94 16.02 -19 15 C-18.67 16.65 -18.34 18.3 -18 20 C-19.98 19.67 -21.96 19.34 -24 19 C-23.67 17.35 -23.34 15.7 -23 14 C-22.34 14 -21.68 14 -21 14 C-20.67 13.01 -20.34 12.02 -20 11 C-18.28662617 10.27511107 -16.57050891 9.55540141 -14.8359375 8.8828125 C-11.99435132 7.51643276 -10.15217517 5.26544754 -8 3 C-3.65517241 0 -3.65517241 0 0 0 Z " fill="#A87233" transform="translate(166,203)"/>
<path d="M0 0 C2.9375 0.375 2.9375 0.375 6 1 C6.33 1.66 6.66 2.32 7 3 C9.34038186 4.13102526 9.34038186 4.13102526 12.0625 5.125 C12.98160156 5.47820312 13.90070313 5.83140625 14.84765625 6.1953125 C15.55792969 6.46085937 16.26820313 6.72640625 17 7 C16.01 7.495 16.01 7.495 15 8 C13.86649466 10.01669827 13.86649466 10.01669827 13 12 C11.68 12 10.36 12 9 12 C8.67 12.99 8.34 13.98 8 15 C5.03 14.505 5.03 14.505 2 14 C2.66 12.35 3.32 10.7 4 9 C1.03 8.01 -1.94 7.02 -5 6 C-5 5.34 -5 4.68 -5 4 C-3.35 3.34 -1.7 2.68 0 2 C0 1.34 0 0.68 0 0 Z " fill="#A67030" transform="translate(271,366)"/>
<path d="M0 0 C1.01866229 1.65532623 2.01810813 3.32260138 3 5 C5.06700655 6.32793606 5.06700655 6.32793606 7 7 C6.360625 7.268125 5.72125 7.53625 5.0625 7.8125 C2.66868314 8.88667752 2.66868314 8.88667752 2 12 C-4.75 10.375 -4.75 10.375 -7 7 C-9.55183404 5.79549696 -9.55183404 5.79549696 -12 5 C-11.67 3.68 -11.34 2.36 -11 1 C-3.00955414 -1.61226115 -3.00955414 -1.61226115 0 0 Z " fill="#A57131" transform="translate(254,352)"/>
<path d="M0 0 C-0.33 1.98 -0.66 3.96 -1 6 C-1.66 6 -2.32 6 -3 6 C-3 7.32 -3 8.64 -3 10 C-3.66 10 -4.32 10 -5 10 C-5 10.66 -5 11.32 -5 12 C-6.98 12.33 -8.96 12.66 -11 13 C-11 11.68 -11 10.36 -11 9 C-11.99 9 -12.98 9 -14 9 C-14 8.34 -14 7.68 -14 7 C-12.35 6.67 -10.7 6.34 -9 6 C-8.67 4.68 -8.34 3.36 -8 2 C-7.34 2 -6.68 2 -6 2 C-6 1.34 -6 0.68 -6 0 C-3.50907189 -1.24546405 -2.58919267 -0.7767578 0 0 Z " fill="#A77131" transform="translate(308,101)"/>
<path d="M0 0 C2 1 2 1 3.1875 3.9375 C4 7 4 7 3 9 C1.35 9 -0.3 9 -2 9 C-2.33 10.32 -2.66 11.64 -3 13 C-3.99 11.68 -4.98 10.36 -6 9 C-6.33 9.66 -6.66 10.32 -7 11 C-8.65 10.67 -10.3 10.34 -12 10 C-12.33 10.99 -12.66 11.98 -13 13 C-13.33 11.68 -13.66 10.36 -14 9 C-13.32453125 8.68546875 -12.6490625 8.3709375 -11.953125 8.046875 C-5.32416431 4.93666114 -5.32416431 4.93666114 0 0 Z " fill="#A6702F" transform="translate(190,188)"/>
<path d="M0 0 C5.22631087 2.50862922 10.28197436 5.24892796 15.3125 8.125 C15.92303223 8.47369141 16.53356445 8.82238281 17.16259766 9.18164062 C19.83390077 10.71739949 22.43499147 12.28999432 25 14 C24.25 15.9375 24.25 15.9375 23 18 C20.875 18.75 20.875 18.75 19 19 C19 17.02 19 15.04 19 13 C18.175 12.7525 17.35 12.505 16.5 12.25 C12.47626529 10.81295189 8.78020976 8.97645485 5 7 C5 6.34 5 5.68 5 5 C2.525 4.01 2.525 4.01 0 3 C0 2.01 0 1.02 0 0 Z " fill="#BB9B75" transform="translate(272,362)"/>
<path d="M0 0 C0.99 0 1.98 0 3 0 C3.33 0.66 3.66 1.32 4 2 C4.99 2 5.98 2 7 2 C7 3.65 7 5.3 7 7 C6.34 7 5.68 7 5 7 C5 7.66 5 8.32 5 9 C4.01 9.33 3.02 9.66 2 10 C2 10.66 2 11.32 2 12 C1.34 12 0.68 12 0 12 C-0.66 11.34 -1.32 10.68 -2 10 C-3.32 10 -4.64 10 -6 10 C-6 8 -6 8 -4 6 C-3.3574765 3.93125966 -3.3574765 3.93125966 -3 2 C-2.01 2 -1.02 2 0 2 C0 1.34 0 0.68 0 0 Z " fill="#A6702D" transform="translate(315,116)"/>
<path d="M0 0 C0.66 0.66 1.32 1.32 2 2 C0.625 4.5 0.625 4.5 -1 7 C-1.66 7 -2.32 7 -3 7 C-3 6.34 -3 5.68 -3 5 C-4.98 5.33 -6.96 5.66 -9 6 C-9.33 6.99 -9.66 7.98 -10 9 C-12.90092502 10.93395001 -13.89674737 11.30131941 -17.1875 11.625 C-18.445625 11.74875 -19.70375 11.8725 -21 12 C-18.24505045 8.79093789 -14.69655133 6.92266979 -11.0625 4.875 C-10.44181641 4.51535156 -9.82113281 4.15570313 -9.18164062 3.78515625 C-2.93250457 0.23133447 -2.93250457 0.23133447 0 0 Z " fill="#B38857" transform="translate(273,118)"/>
<path d="M0 0 C0.33 0 0.66 0 1 0 C1.33 13.86 1.66 27.72 2 42 C3.65 42.66 5.3 43.32 7 44 C7 44.66 7 45.32 7 46 C7.66 46.33 8.32 46.66 9 47 C9 47.66 9 48.32 9 49 C5.89656201 47.79310745 2.98806107 46.49403054 0 45 C0 30.15 0 15.3 0 0 Z " fill="#9E7342" transform="translate(186,304)"/>
<path d="M0 0 C2.5 1.375 2.5 1.375 5 3 C5 3.66 5 4.32 5 5 C4.34 5 3.68 5 3 5 C3 6.32 3 7.64 3 9 C2.01 9 1.02 9 0 9 C0.33 9.99 0.66 10.98 1 12 C-0.98 12 -2.96 12 -5 12 C-4.67 11.34 -4.34 10.68 -4 10 C-3.34 10 -2.68 10 -2 10 C-1.67 8.68 -1.34 7.36 -1 6 C-2.11375 6.2784375 -2.11375 6.2784375 -3.25 6.5625 C-5.94990963 6.99203108 -7.44631077 6.85122974 -10 6 C-6.6659053 3.80902348 -3.95820859 2.56545837 0 2 C0 1.34 0 0.68 0 0 Z " fill="#A57032" transform="translate(301,124)"/>
<path d="M0 0 C0 0.99 0 1.98 0 3 C-5.625 6 -5.625 6 -9 6 C-8.67 6.99 -8.34 7.98 -8 9 C-8.69867188 9.25394531 -9.39734375 9.50789062 -10.1171875 9.76953125 C-11.02726562 10.11371094 -11.93734375 10.45789063 -12.875 10.8125 C-13.77992188 11.14894531 -14.68484375 11.48539063 -15.6171875 11.83203125 C-18.29425849 12.89649024 -18.29425849 12.89649024 -20 16 C-20.66 15.67 -21.32 15.34 -22 15 C-22 14.01 -22 13.02 -22 12 C-20.19580078 10.55786133 -20.19580078 10.55786133 -17.6953125 9.08203125 C-16.80199219 8.55029297 -15.90867187 8.01855469 -14.98828125 7.47070312 C-14.04339844 6.92349609 -13.09851563 6.37628906 -12.125 5.8125 C-11.18785156 5.25369141 -10.25070312 4.69488281 -9.28515625 4.11914062 C-2.29418498 0 -2.29418498 0 0 0 Z " fill="#B2875A" transform="translate(275,138)"/>
<path d="M0 0 C4.64557387 1.68515915 8.8339069 4.0183865 13.125 6.4375 C13.84042969 6.83259766 14.55585938 7.22769531 15.29296875 7.63476562 C15.98261719 8.02212891 16.67226562 8.40949219 17.3828125 8.80859375 C18.00559082 9.15720459 18.62836914 9.50581543 19.27001953 9.86499023 C21.09955812 11.06531833 22.50924931 12.40497104 24 14 C20.05272412 14.17942163 17.4019487 14.09350689 14 12 C14 11.01 14 10.02 14 9 C12.88625 8.9175 11.7725 8.835 10.625 8.75 C9.42875 8.5025 8.2325 8.255 7 8 C5.875 6 5.875 6 5 4 C2.44480079 3.18828772 2.44480079 3.18828772 0 3 C0 2.01 0 1.02 0 0 Z " fill="#C1A47A" transform="translate(217,352)"/>
<path d="M0 0 C0 0.66 0 1.32 0 2 C-0.99 2.33 -1.98 2.66 -3 3 C-4.71567661 6.50294871 -4.71567661 6.50294871 -6 10 C-5.030625 10.268125 -4.06125 10.53625 -3.0625 10.8125 C-2.051875 11.204375 -1.04125 11.59625 0 12 C0.33 12.99 0.66 13.98 1 15 C-2.49844386 14.36610765 -4.84086876 12.94822306 -7.75 10.9375 C-8.54921875 10.38964844 -9.3484375 9.84179688 -10.171875 9.27734375 C-10.77515625 8.85582031 -11.3784375 8.43429688 -12 8 C-4.43243243 0 -4.43243243 0 0 0 Z " fill="#B28C5E" transform="translate(118,207)"/>
<path d="M0 0 C0 0.66 0 1.32 0 2 C-0.99 2 -1.98 2 -3 2 C-3.33 3.32 -3.66 4.64 -4 6 C-4.84884766 6.16435547 -4.84884766 6.16435547 -5.71484375 6.33203125 C-6.44832031 6.49058594 -7.18179688 6.64914063 -7.9375 6.8125 C-8.66839844 6.96332031 -9.39929688 7.11414063 -10.15234375 7.26953125 C-11.06693359 7.63111328 -11.06693359 7.63111328 -12 8 C-12.33 8.99 -12.66 9.98 -13 11 C-16.77977668 13.31940842 -19.56084956 14.39168975 -24 14 C-21.76118156 11.56952479 -19.47483712 9.95575471 -16.62109375 8.30078125 C-15.78255859 7.81416016 -14.94402344 7.32753906 -14.08007812 6.82617188 C-13.20802734 6.32666016 -12.33597656 5.82714844 -11.4375 5.3125 C-10.56158203 4.80138672 -9.68566406 4.29027344 -8.78320312 3.76367188 C-2.25582026 0 -2.25582026 0 0 0 Z " fill="#C4A783" transform="translate(199,182)"/>
<path d="M0 0 C0.07405295 4.80546679 0.12855497 9.6106029 0.16479492 14.41650391 C0.17989911 16.05197941 0.20038389 17.68741429 0.22631836 19.32275391 C0.26263145 21.67100024 0.27970932 24.01871205 0.29296875 26.3671875 C0.30845261 27.10057343 0.32393646 27.83395935 0.33988953 28.58956909 C0.34057617 30.65185547 0.34057617 30.65185547 0 34 C-0.99 34.66 -1.98 35.32 -3 36 C-3.33 34.68 -3.66 33.36 -4 32 C-3.01 32 -2.02 32 -1 32 C-1 22.43 -1 12.86 -1 3 C-2.98 3.33 -4.96 3.66 -7 4 C-7.66 3.67 -8.32 3.34 -9 3 C-3.375 0 -3.375 0 0 0 Z " fill="#D2B793" transform="translate(328,87)"/>
<path d="M0 0 C1.65 0 3.3 0 5 0 C5 0.66 5 1.32 5 2 C5.66 2 6.32 2 7 2 C7 2.66 7 3.32 7 4 C8.32 4 9.64 4 11 4 C11.33 4.66 11.66 5.32 12 6 C13.94670346 6.80124624 13.94670346 6.80124624 16.25 7.4375 C19.83926436 8.5652274 22.90328473 9.8023311 26 12 C26 12.33 26 12.66 26 13 C21.12335991 13.34833144 18.22949995 12.41685712 14 10 C14 9.34 14 8.68 14 8 C13.44828125 7.896875 12.8965625 7.79375 12.328125 7.6875 C9.49106688 6.84971102 7.27539018 5.53590982 4.75 4 C3.85796875 3.46375 2.9659375 2.9275 2.046875 2.375 C1.37140625 1.92125 0.6959375 1.4675 0 1 C0 0.67 0 0.34 0 0 Z " fill="#BB9F76" transform="translate(244,381)"/>
<path d="M0 0 C0.66 0.33 1.32 0.66 2 1 C1.67 1.66 1.34 2.32 1 3 C2.32 2.67 3.64 2.34 5 2 C5.33 3.98 5.66 5.96 6 8 C3 10 3 10 0.3125 9.625 C-0.450625 9.41875 -1.21375 9.2125 -2 9 C-2.59732819 6.23735711 -3 3.83967231 -3 1 C-2.01 0.67 -1.02 0.34 0 0 Z " fill="#AE7C40" transform="translate(195,187)"/>
<path d="M0 0 C0.66 0.33 1.32 0.66 2 1 C0.625 3 0.625 3 -1 5 C-1.66 5 -2.32 5 -3 5 C-3.99 6.485 -3.99 6.485 -5 8 C-6.65 7.67 -8.3 7.34 -10 7 C-10.66 8.65 -11.32 10.3 -12 12 C-12.99 12 -13.98 12 -15 12 C-15.66 11.34 -16.32 10.68 -17 10 C-14.21605957 8.29949343 -11.42172475 6.61688375 -8.625 4.9375 C-7.8309375 4.45216797 -7.036875 3.96683594 -6.21875 3.46679688 C-5.45820313 3.01240234 -4.69765625 2.55800781 -3.9140625 2.08984375 C-2.8614624 1.45357056 -2.8614624 1.45357056 -1.78759766 0.80444336 C-0.90273682 0.4062439 -0.90273682 0.4062439 0 0 Z " fill="#BEA075" transform="translate(177,172)"/>
<path d="M0 0 C2.64 0 5.28 0 8 0 C8.08159574 4.16138263 7.98248524 7.9472484 7 12 C5.68 11.67 4.36 11.34 3 11 C2.34 12.32 1.68 13.64 1 15 C-0.98 15 -2.96 15 -5 15 C-2.95770425 12.59729912 -1.35311648 11.68223265 1.5625 10.25 C3.74606539 9.07069042 4.78705432 8.42959476 5.8984375 6.1875 C6.52768695 4.05066828 6.52768695 4.05066828 7 1 C5.576875 1.7734375 5.576875 1.7734375 4.125 2.5625 C3.09375 3.036875 2.0625 3.51125 1 4 C0.34 3.67 -0.32 3.34 -1 3 C-0.67 2.01 -0.34 1.02 0 0 Z " fill="#BD9B6F" transform="translate(309,107)"/>
<path d="M0 0 C6.70212766 1.93617021 6.70212766 1.93617021 9 5 C9 5.66 9 6.32 9 7 C10.65 7.33 12.3 7.66 14 8 C14 8.99 14 9.98 14 11 C8.03347646 9.42986223 3.17090975 6.24970218 -2 3 C-1.34 2.01 -0.68 1.02 0 0 Z " fill="#B08958" transform="translate(225,367)"/>
<path d="M0 0 C4.27343092 -0.36629408 6.48812804 0.59185923 10 3 C9.67 4.32 9.34 5.64 9 7 C9.99 7 10.98 7 12 7 C12 7.66 12 8.32 12 9 C8.86825999 10.04391334 7.17503887 10.0069626 3.9375 9.6875 C3.05964844 9.60886719 2.18179687 9.53023438 1.27734375 9.44921875 C-1 9 -1 9 -3 7 C-1.329375 7.061875 -1.329375 7.061875 0.375 7.125 C4.04366025 7.41121859 4.04366025 7.41121859 6 5 C5.01 4.360625 4.02 3.72125 3 3.0625 C2.01 2.381875 1.02 1.70125 0 1 C0 0.67 0 0.34 0 0 Z " fill="#CBA87A" transform="translate(266,372)"/>
<path d="M0 0 C1.98 0 3.96 0 6 0 C6 0.99 6 1.98 6 3 C6.66 3 7.32 3 8 3 C8.66 4.32 9.32 5.64 10 7 C7.875 7.75 7.875 7.75 5 8 C1.6875 6.0625 1.6875 6.0625 -1 4 C-0.67 2.68 -0.34 1.36 0 0 Z " fill="#A47131" transform="translate(264,123)"/>
<path d="M0 0 C0 0.66 0 1.32 0 2 C-0.66 2 -1.32 2 -2 2 C-2.33 3.32 -2.66 4.64 -3 6 C-4.65 6.33 -6.3 6.66 -8 7 C-8.33 7.99 -8.66 8.98 -9 10 C-11.64 10 -14.28 10 -17 10 C-14.38772848 7.04185281 -11.33429693 5.28123892 -7.9375 3.3125 C-6.87402344 2.68988281 -5.81054688 2.06726563 -4.71484375 1.42578125 C-2 0 -2 0 0 0 Z " fill="#C4A984" transform="translate(302,101)"/>
<path d="M0 0 C-0.33 1.32 -0.66 2.64 -1 4 C-1.99 3.67 -2.98 3.34 -4 3 C-4.185625 3.598125 -4.37125 4.19625 -4.5625 4.8125 C-6.72937233 8.10991441 -9.32710545 8.79681041 -13 10 C-15.2265625 9.57421875 -15.2265625 9.57421875 -17 9 C-14.54481265 7.49462965 -12.0861548 5.99555574 -9.625 4.5 C-8.92632812 4.07074219 -8.22765625 3.64148438 -7.5078125 3.19921875 C-2.2265625 0 -2.2265625 0 0 0 Z " fill="#C2A47B" transform="translate(153,187)"/>
<path d="M0 0 C0.33 0 0.66 0 1 0 C1 4.62 1 9.24 1 14 C-4.70053971 13.04991005 -6.0205731 12.628301 -10 9 C-7.21176345 7.9673198 -6.1322726 7.95490707 -3.25 8.9375 C-2.5075 9.288125 -1.765 9.63875 -1 10 C-0.67 6.7 -0.34 3.4 0 0 Z " fill="#B08F61" transform="translate(261,333)"/>
<path d="M0 0 C-0.0721875 0.61488281 -0.144375 1.22976562 -0.21875 1.86328125 C-0.3115625 2.67152344 -0.404375 3.47976562 -0.5 4.3125 C-0.5928125 5.11300781 -0.685625 5.91351563 -0.78125 6.73828125 C-1.04813463 9.11896555 -1.04813463 9.11896555 -1 12 C-4.465 10.02 -4.465 10.02 -8 8 C-7.67 7.34 -7.34 6.68 -7 6 C-6.34 6 -5.68 6 -5 6 C-5.33 4.68 -5.66 3.36 -6 2 C-3 0 -3 0 0 0 Z " fill="#A47233" transform="translate(229,145)"/>
<path d="M0 0 C0.66 0.33 1.32 0.66 2 1 C0.625 2.5 0.625 2.5 -1 4 C-1.66 4 -2.32 4 -3 4 C-3.2784375 4.8971875 -3.2784375 4.8971875 -3.5625 5.8125 C-5.72937233 9.10991441 -8.32710545 9.79681041 -12 11 C-14.2265625 10.57421875 -14.2265625 10.57421875 -16 10 C-14.10285703 8.81428564 -12.20524533 7.6294584 -10.3046875 6.44921875 C-8.77837199 5.48945086 -7.26241682 4.5129895 -5.7578125 3.51953125 C-5.05398437 3.05933594 -4.35015625 2.59914062 -3.625 2.125 C-2.97789062 1.69445312 -2.33078125 1.26390625 -1.6640625 0.8203125 C-1.11492187 0.54960937 -0.56578125 0.27890625 0 0 Z " fill="#C0A179" transform="translate(157,205)"/>
<path d="M0 0 C-1.47703954 3.85205198 -3.48702291 5.25475324 -7 7.3125 C-7.886875 7.84488281 -8.77375 8.37726563 -9.6875 8.92578125 C-10.450625 9.28027344 -11.21375 9.63476562 -12 10 C-12.66 9.67 -13.32 9.34 -14 9 C-14 8.01 -14 7.02 -14 6 C-10.535 5.505 -10.535 5.505 -7 5 C-7 3.68 -7 2.36 -7 1 C-4.53721199 -0.231394 -2.7204945 -0.07159196 0 0 Z " fill="#B58D5C" transform="translate(195,196)"/>
<path d="M0 0 C2.9375 0.8125 2.9375 0.8125 6 2 C7.09658936 5.28976808 6.79953138 6.71303767 6 10 C4.125 9.8125 4.125 9.8125 2 9 C0.8125 6.5625 0.8125 6.5625 0 4 C-0.33 3.34 -0.66 2.68 -1 2 C-0.67 1.34 -0.34 0.68 0 0 Z " fill="#A6702F" transform="translate(225,338)"/>
<path d="M0 0 C4.61513112 1.31860889 8.09897612 3.21355437 12 6 C11.01 6.66 10.02 7.32 9 8 C8.67 7.67 8.34 7.34 8 7 C6.00041636 6.95919217 3.99954746 6.95745644 2 7 C1.855625 6.401875 1.71125 5.80375 1.5625 5.1875 C1.1127561 3.43849596 0.57107659 1.71322977 0 0 Z " fill="#BD9A6D" transform="translate(242,345)"/>
<path d="M0 0 C0.8353125 0.556875 0.8353125 0.556875 1.6875 1.125 C-1.7775 2.61 -1.7775 2.61 -5.3125 4.125 C-5.6425 9.075 -5.9725 14.025 -6.3125 19.125 C-6.6425 19.125 -6.9725 19.125 -7.3125 19.125 C-7.3125 13.185 -7.3125 7.245 -7.3125 1.125 C-2.3125 -0.875 -2.3125 -0.875 0 0 Z " fill="#AB804A" transform="translate(267.3125,154.875)"/>
<path d="M0 0 C1.65 0 3.3 0 5 0 C4.21625 0.598125 3.4325 1.19625 2.625 1.8125 C-0.14574323 3.91085249 -0.14574323 3.91085249 -2 7 C0.97 7 3.94 7 7 7 C7 7.66 7 8.32 7 9 C3.37 9 -0.26 9 -4 9 C-4 7.02 -4 5.04 -4 3 C-2.68 2.67 -1.36 2.34 0 2 C0 1.34 0 0.68 0 0 Z " fill="#C4A478" transform="translate(133,209)"/>
<path d="M0 0 C0 4.62 0 9.24 0 14 C-0.33 14 -0.66 14 -1 14 C-1.33 10.04 -1.66 6.08 -2 2 C-4.97 3.32 -7.94 4.64 -11 6 C-10.67 4.35 -10.34 2.7 -10 1 C-3.375 0 -3.375 0 0 0 Z " fill="#C9AF87" transform="translate(230,178)"/>
<path d="M0 0 C3.59391114 1.33488128 6.75490696 2.96022723 10 5 C9.25 6.9375 9.25 6.9375 8 9 C5.875 9.75 5.875 9.75 4 10 C4 8.02 4 6.04 4 4 C3.01 3.67 2.02 3.34 1 3 C0.67 2.01 0.34 1.02 0 0 Z " fill="#C6AC8B" transform="translate(287,371)"/>
<path d="M0 0 C0.66 0.33 1.32 0.66 2 1 C1.26953125 2.93359375 1.26953125 2.93359375 0 5 C-1.98828125 5.72265625 -1.98828125 5.72265625 -4.3125 6.0625 C-8.14528854 6.74032434 -10.69618382 7.89757152 -14 10 C-14.66 9.67 -15.32 9.34 -16 9 C-15.43152344 8.68546875 -14.86304688 8.3709375 -14.27734375 8.046875 C-13.11912109 7.40492188 -13.11912109 7.40492188 -11.9375 6.75 C-10.71160156 6.07324219 -10.71160156 6.07324219 -9.4609375 5.3828125 C-7.30120932 4.16925095 -5.18326622 2.90461844 -3.0625 1.625 C-2.051875 1.08875 -1.04125 0.5525 0 0 Z " fill="#CBAE8C" transform="translate(302,122)"/>
<path d="M0 0 C0.33 0 0.66 0 1 0 C1.66 2.31 2.32 4.62 3 7 C4.32 7.33 5.64 7.66 7 8 C7 8.66 7 9.32 7 10 C7.66 10.33 8.32 10.66 9 11 C9 11.66 9 12.32 9 13 C5.89656201 11.79310745 2.98806107 10.49403054 0 9 C0 6.03 0 3.06 0 0 Z " fill="#B6966D" transform="translate(186,340)"/>
<path d="M0 0 C0.66 0.33 1.32 0.66 2 1 C1.67 2.32 1.34 3.64 1 5 C-0.134375 5.12375 -1.26875 5.2475 -2.4375 5.375 C-4.2009375 5.684375 -4.2009375 5.684375 -6 6 C-6.33 6.66 -6.66 7.32 -7 8 C-8.32 8 -9.64 8 -11 8 C-11 7.34 -11 6.68 -11 6 C-9.21385682 4.96953278 -7.42089982 3.95086764 -5.625 2.9375 C-4.62726563 2.36902344 -3.62953125 1.80054688 -2.6015625 1.21484375 C-1.74304688 0.81394531 -0.88453125 0.41304687 0 0 Z " fill="#BE9F76" transform="translate(197,204)"/>
<path d="M0 0 C1.98 0 3.96 0 6 0 C2.20182235 3.22269618 -1.57391854 5.74520378 -6 8 C-6.66 7.67 -7.32 7.34 -8 7 C-8 6.34 -8 5.68 -8 5 C-7.01 5 -6.02 5 -5 5 C-5 4.34 -5 3.68 -5 3 C-3.68 3 -2.36 3 -1 3 C-0.67 2.01 -0.34 1.02 0 0 Z " fill="#C1A17A" transform="translate(217,160)"/>
<path d="M0 0 C2.125 0.9375 2.125 0.9375 4 2 C2.3811004 3.03048037 0.75467511 4.04914678 -0.875 5.0625 C-1.77992188 5.63097656 -2.68484375 6.19945312 -3.6171875 6.78515625 C-4.40351563 7.18605469 -5.18984375 7.58695312 -6 8 C-6.66 7.67 -7.32 7.34 -8 7 C-6.71034824 5.62437146 -5.37310707 4.29233607 -4 3 C-3.34 3 -2.68 3 -2 3 C-2 2.34 -2 1.68 -2 1 C-1.34 0.67 -0.68 0.34 0 0 Z " fill="#C0A079" transform="translate(283,382)"/>
<path d="M0 0 C0.66 0.33 1.32 0.66 2 1 C1.67 2.65 1.34 4.3 1 6 C0.13375 6.144375 -0.7325 6.28875 -1.625 6.4375 C-3.295625 6.7159375 -3.295625 6.7159375 -5 7 C-7 7.33333333 -9 7.66666667 -11 8 C-8.83385197 5.69125289 -6.60793392 3.94709819 -3.9375 2.25 C-2.89916016 1.57710937 -2.89916016 1.57710937 -1.83984375 0.890625 C-1.23269531 0.59671875 -0.62554687 0.3028125 0 0 Z " fill="#C7A680" transform="translate(210,174)"/>
<path d="M0 0 C4.38889325 0.66498383 7.9811485 2.18757677 12 4 C11.67 4.66 11.34 5.32 11 6 C9.35 6 7.7 6 6 6 C6 5.34 6 4.68 6 4 C3.69 3.67 1.38 3.34 -1 3 C-0.67 2.01 -0.34 1.02 0 0 Z " fill="#AE834B" transform="translate(261,127)"/>
<path d="M0 0 C-1 3 -1 3 -3.75 4.6875 C-6.85020705 5.93950669 -8.71671912 6.28970125 -12 6 C-8.42811627 2.0521285 -5.4000395 0 0 0 Z " fill="#BD9D78" transform="translate(187,190)"/>
<path d="M0 0 C-0.99 0.66 -1.98 1.32 -3 2 C-2.34 2.66 -1.68 3.32 -1 4 C-2.98 4.33 -4.96 4.66 -7 5 C-7.66 3.68 -8.32 2.36 -9 1 C-5.57367167 -0.61798838 -3.61944899 -1.34053666 0 0 Z " fill="#A86F2E" transform="translate(178,180)"/>
<path d="M0 0 C10.09117362 3.09990301 10.09117362 3.09990301 14 6 C14 6.66 14 7.32 14 8 C10.76171886 7.34048737 8.19450407 6.16784772 5.3125 4.5625 C4.52488281 4.13066406 3.73726562 3.69882812 2.92578125 3.25390625 C1 2 1 2 0 0 Z " fill="#C7AF8A" transform="translate(204,358)"/>
<path d="M0 0 C-2.87949147 2.23960447 -5.76742026 4.29864224 -9 6 C-9.66 5.67 -10.32 5.34 -11 5 C-11 4.01 -11 3.02 -11 2 C-9.35 2 -7.7 2 -6 2 C-6 1.34 -6 0.68 -6 0 C-3 -1 -3 -1 0 0 Z " fill="#BE9D75" transform="translate(284,125)"/>
<path d="M0 0 C0 0.99 0 1.98 0 3 C-2.90092502 4.93395001 -3.89674737 5.30131941 -7.1875 5.625 C-8.445625 5.74875 -9.70375 5.8725 -11 6 C-7.88264342 2.55450062 -4.75616064 0 0 0 Z " fill="#C1A27C" transform="translate(263,124)"/>
<path d="M0 0 C0.66 0.99 1.32 1.98 2 3 C3.2684375 3.495 3.2684375 3.495 4.5625 4 C5.7690625 4.495 5.7690625 4.495 7 5 C7.33 5.99 7.66 6.98 8 8 C3.38486888 6.68139111 -0.09897612 4.78644563 -4 2 C-3.34 1.67 -2.68 1.34 -2 1 C-1.34 1.33 -0.68 1.66 0 2 C0 1.34 0 0.68 0 0 Z " fill="#C8A783" transform="translate(241,354)"/>
<path d="M0 0 C0.99 0.33 1.98 0.66 3 1 C1.84826645 3.46800047 0.95216435 5.04783565 -1 7 C-3.125 6.625 -3.125 6.625 -5 6 C-4.34 5.01 -3.68 4.02 -3 3 C-2.34 3 -1.68 3 -1 3 C-0.67 2.01 -0.34 1.02 0 0 Z " fill="#A77030" transform="translate(160,183)"/>
<path d="M0 0 C1.65 0 3.3 0 5 0 C5 0.66 5 1.32 5 2 C5.66 2 6.32 2 7 2 C7 2.66 7 3.32 7 4 C8.32 4 9.64 4 11 4 C11.66 5.32 12.32 6.64 13 8 C8.27626146 6.37621488 4.05818166 3.89006982 0 1 C0 0.67 0 0.34 0 0 Z " fill="#CCB38B" transform="translate(244,381)"/>
<path d="M0 0 C-2.43044383 3.64566574 -3.82388959 3.9977335 -8 5 C-10.375 4.625 -10.375 4.625 -12 4 C-4.71428571 -0.57142857 -4.71428571 -0.57142857 0 0 Z " fill="#BFA27E" transform="translate(287,133)"/>
<path d="M0 0 C2.64 0 5.28 0 8 0 C8.125 6.75 8.125 6.75 7 9 C6.34 8.67 5.68 8.34 5 8 C5.66 5.69 6.32 3.38 7 1 C6.05125 1.515625 5.1025 2.03125 4.125 2.5625 C3.09375 3.036875 2.0625 3.51125 1 4 C0.34 3.67 -0.32 3.34 -1 3 C-0.67 2.01 -0.34 1.02 0 0 Z " fill="#C8AD83" transform="translate(309,107)"/>
<path d="M0 0 C1.65 0 3.3 0 5 0 C5 0.66 5 1.32 5 2 C7.64 2 10.28 2 13 2 C11.375 3.625 11.375 3.625 9 5 C5.10798661 4.20571155 2.53105083 3.09350657 0 0 Z " fill="#BD9A6F" transform="translate(249,362)"/>
<path d="M0 0 C4.40114397 0.50298788 6.71195019 2.08772731 10 5 C6.05272412 5.17942163 3.4019487 5.09350689 0 3 C0 2.01 0 1.02 0 0 Z " fill="#BB996E" transform="translate(231,361)"/>
<path d="M0 0 C3.3 0 6.6 0 10 0 C9.67 0.99 9.34 1.98 9 3 C6.1875 3.6875 6.1875 3.6875 3 4 C1.125 2.625 1.125 2.625 0 1 C0 0.67 0 0.34 0 0 Z " fill="#B79972" transform="translate(131,228)"/>
<path d="M0 0 C-5.2734375 3.22265625 -5.2734375 3.22265625 -7 4 C-7.66 3.67 -8.32 3.34 -9 3 C-8.67 1.68 -8.34 0.36 -8 -1 C-4.59745511 -2.2151946 -3.06748874 -1.86240388 0 0 Z " fill="#BFA075" transform="translate(285,147)"/>
<path d="M0 0 C4.455 0.99 4.455 0.99 9 2 C9.33 3.32 9.66 4.64 10 6 C5.56909529 4.79157144 3.01887244 3.48331435 0 0 Z " fill="#C7AB84" transform="translate(229,372)"/>
<path d="M0 0 C3.3 0 6.6 0 10 0 C8.515 1.485 8.515 1.485 7 3 C6.01 3 5.02 3 4 3 C4 3.66 4 4.32 4 5 C3.01 4.67 2.02 4.34 1 4 C0.67 2.68 0.34 1.36 0 0 Z " fill="#C6A57A" transform="translate(157,214)"/>
<path d="M0 0 C1.65 0 3.3 0 5 0 C5 0.66 5 1.32 5 2 C4.01 2 3.02 2 2 2 C2 2.66 2 3.32 2 4 C0.02 4.66 -1.96 5.32 -4 6 C-4 5.01 -4 4.02 -4 3 C-3.01 2.67 -2.02 2.34 -1 2 C-0.67 1.34 -0.34 0.68 0 0 Z " fill="#B39362" transform="translate(203,211)"/>
<path d="M0 0 C0.99 0.66 1.98 1.32 3 2 C1.71475739 2.86380259 0.42157581 3.71580369 -0.875 4.5625 C-1.59429687 5.03816406 -2.31359375 5.51382813 -3.0546875 6.00390625 C-3.69664062 6.33261719 -4.33859375 6.66132812 -5 7 C-5.66 6.67 -6.32 6.34 -7 6 C-6.67 5.01 -6.34 4.02 -6 3 C-4.68 3 -3.36 3 -2 3 C-2 2.34 -2 1.68 -2 1 C-1.34 0.67 -0.68 0.34 0 0 Z " fill="#C4A67B" transform="translate(305,110)"/>
<path d="M0 0 C-0.33 1.32 -0.66 2.64 -1 4 C-3.97 4.66 -6.94 5.32 -10 6 C-4 0 -4 0 0 0 Z " fill="#C5A781" transform="translate(226,166)"/>
<path d="M0 0 C0 0.66 0 1.32 0 2 C-5.2734375 5.22265625 -5.2734375 5.22265625 -7 6 C-7.66 5.67 -8.32 5.34 -9 5 C-4.5 0 -4.5 0 0 0 Z " fill="#C1A377" transform="translate(294,140)"/>
<path d="M0 0 C0.33 0 0.66 0 1 0 C1.08075665 2.29109597 1.13907731 4.58299267 1.1875 6.875 C1.22230469 8.15117188 1.25710938 9.42734375 1.29296875 10.7421875 C1.19628906 11.81726563 1.09960938 12.89234375 1 14 C0.01 14.66 -0.98 15.32 -2 16 C-2.33 14.68 -2.66 13.36 -3 12 C-2.01 12 -1.02 12 0 12 C0 8.04 0 4.08 0 0 Z " fill="#C7A97D" transform="translate(327,107)"/>
<path d="M0 0 C0.66 0.33 1.32 0.66 2 1 C1.67 3.31 1.34 5.62 1 8 C-0.32 8.33 -1.64 8.66 -3 9 C-3 8.01 -3 7.02 -3 6 C-2.34 6 -1.68 6 -1 6 C-0.67 4.02 -0.34 2.04 0 0 Z " fill="#AE8752" transform="translate(290,374)"/>
<path d="M0 0 C4.27343092 -0.36629408 6.48812804 0.59185923 10 3 C9.67 3.99 9.34 4.98 9 6 C8.34 5.34 7.68 4.68 7 4 C4.68351201 2.96157435 2.35096976 1.9578025 0 1 C0 0.67 0 0.34 0 0 Z " fill="#B39064" transform="translate(266,372)"/>
<path d="M0 0 C5.75 1.625 5.75 1.625 8 5 C6.68 5.33 5.36 5.66 4 6 C4 5.34 4 4.68 4 4 C2.68 3.67 1.36 3.34 0 3 C0 2.01 0 1.02 0 0 Z " fill="#C3A683" transform="translate(227,336)"/>
<path d="M0 0 C3.3125 0.1875 3.3125 0.1875 7 1 C8.9375 3.5625 8.9375 3.5625 10 6 C6.40992874 4.66654496 3.20429093 3.1056769 0 1 C0 0.67 0 0.34 0 0 Z " fill="#C2A57F" transform="translate(119,222)"/>
<path d="M0 0 C-5.14285714 4.42857143 -5.14285714 4.42857143 -9 5 C-8.67 4.01 -8.34 3.02 -8 2 C-8.66 1.67 -9.32 1.34 -10 1 C-6.59437148 0.22157062 -3.49234244 -0.09978121 0 0 Z " fill="#C0A076" transform="translate(157,198)"/>
<path d="M0 0 C-0.25 2.375 -0.25 2.375 -1 5 C-3.0625 6.3125 -3.0625 6.3125 -5 7 C-5 3 -5 3 -3.625 1.25 C-2 0 -2 0 0 0 Z " fill="#AB8152" transform="translate(216,172)"/>
<path d="M0 0 C0 0.99 0 1.98 0 3 C-5.45769231 6.10096154 -5.45769231 6.10096154 -8.203125 5.58984375 C-8.79609375 5.39519531 -9.3890625 5.20054687 -10 5 C-8.71186658 4.16121545 -7.41936744 3.32913217 -6.125 2.5 C-5.40570313 2.0359375 -4.68640625 1.571875 -3.9453125 1.09375 C-2 0 -2 0 0 0 Z " fill="#CAAD8C" transform="translate(275,138)"/>
<path d="M0 0 C0 0.66 0 1.32 0 2 C-0.99 2 -1.98 2 -3 2 C-3 2.99 -3 3.98 -3 5 C-4.875 5.625 -4.875 5.625 -7 6 C-7.66 5.34 -8.32 4.68 -9 4 C-2.25 0 -2.25 0 0 0 Z " fill="#C7A981" transform="translate(285,111)"/>
<path d="M0 0 C3.73487777 0.4979837 5.81237635 0.87491756 9 3 C9 3.66 9 4.32 9 5 C5.51694958 4.35499066 2.93797836 2.95865224 0 1 C0 0.67 0 0.34 0 0 Z " fill="#C0A781" transform="translate(110,217)"/>
<path d="M0 0 C0 0.99 0 1.98 0 3 C-6.625 5 -6.625 5 -10 5 C-6.99385784 1.69324363 -4.54252119 0 0 0 Z " fill="#9F733F" transform="translate(166,203)"/>
<path d="M0 0 C-5.14285714 4.42857143 -5.14285714 4.42857143 -9 5 C-8.6875 3.0625 -8.6875 3.0625 -8 1 C-5.07175348 0.02391783 -3.04386724 -0.08226668 0 0 Z " fill="#BFA07B" transform="translate(210,189)"/>
<path d="M0 0 C1.32 0.66 2.64 1.32 4 2 C-1.2734375 5.22265625 -1.2734375 5.22265625 -3 6 C-3.66 5.67 -4.32 5.34 -5 5 C-4.67 4.01 -4.34 3.02 -4 2 C-2.68 2 -1.36 2 0 2 C0 1.34 0 0.68 0 0 Z " fill="#BFA273" transform="translate(181,181)"/>
<path d="M0 0 C0 2 0 2 -2.5 4.625 C-3.325 5.40875 -4.15 6.1925 -5 7 C-5.66 6.67 -6.32 6.34 -7 6 C-7 5.01 -7 4.02 -7 3 C-2.77777778 0 -2.77777778 0 0 0 Z " fill="#BC9D74" transform="translate(260,147)"/>
<path d="M0 0 C0 0.66 0 1.32 0 2 C-0.66 2 -1.32 2 -2 2 C-2.33 2.99 -2.66 3.98 -3 5 C-4.98 5 -6.96 5 -9 5 C-6.45523312 2.20075644 -3.92372883 0 0 0 Z " fill="#C7AB86" transform="translate(216,194)"/>
<path d="M0 0 C1.65 0.33 3.3 0.66 5 1 C2.14693203 3.32472205 -0.54074837 4.7508258 -4 6 C-3.67 5.01 -3.34 4.02 -3 3 C-2.01 3 -1.02 3 0 3 C0 2.01 0 1.02 0 0 Z " fill="#C1A580" transform="translate(201,169)"/>
<path d="M0 0 C1.65 0 3.3 0 5 0 C2.64722731 2.72426311 0.37503669 3.8141763 -3 5 C-3.33 4.01 -3.66 3.02 -4 2 C-2.68 2 -1.36 2 0 2 C0 1.34 0 0.68 0 0 Z " fill="#C8AB8B" transform="translate(320,123)"/>
<path d="M0 0 C3.33333333 1.66666667 6.66666667 3.33333333 10 5 C7.58287634 5.86325845 6.35009306 6.1132654 3.875 5.3125 C1.68703828 3.7809268 0.98093954 2.45234885 0 0 Z " fill="#CAB08F" transform="translate(207,346)"/>
<path d="M0 0 C1.4835001 0.42257276 2.96176424 0.86356322 4.4375 1.3125 C5.67306641 1.67794922 5.67306641 1.67794922 6.93359375 2.05078125 C7.61550781 2.36402344 8.29742187 2.67726563 9 3 C9.33 3.99 9.66 4.98 10 6 C6.40992874 4.66654496 3.20429093 3.1056769 0 1 C0 0.67 0 0.34 0 0 Z " fill="#CAB190" transform="translate(241,336)"/>
<path d="M0 0 C-0.33 1.32 -0.66 2.64 -1 4 C-3.64 4 -6.28 4 -9 4 C-6.31059578 0.90718514 -4.07621501 0 0 0 Z " fill="#B8996D" transform="translate(294,107)"/>
<path d="M0 0 C5.53846154 0.61538462 5.53846154 0.61538462 7.875 2.5625 C8.431875 3.2740625 8.431875 3.2740625 9 4 C8.01 4.495 8.01 4.495 7 5 C4.5249829 3.88568235 2.32116581 2.41849022 0 1 C0 0.67 0 0.34 0 0 Z " fill="#C4A985" transform="translate(216,343)"/>
<path d="M0 0 C0 0.66 0 1.32 0 2 C-2.375 3.6875 -2.375 3.6875 -5 5 C-5.66 4.67 -6.32 4.34 -7 4 C-7 3.01 -7 2.02 -7 1 C-4.50935112 0.31292445 -2.62113708 0 0 0 Z " fill="#C09F76" transform="translate(188,201)"/>
<path d="M0 0 C1.98 0 3.96 0 6 0 C4.60210322 2.79579355 2.7371003 3.59807058 0 5 C-0.66 4.67 -1.32 4.34 -2 4 C-1.34 2.68 -0.68 1.36 0 0 Z " fill="#C1A781" transform="translate(170,187)"/>
<path d="M0 0 C0 0.66 0 1.32 0 2 C-0.99 2.33 -1.98 2.66 -3 3 C-3 4.32 -3 5.64 -3 7 C-4.32 6.34 -5.64 5.68 -7 5 C-2.25 0 -2.25 0 0 0 Z " fill="#D2BC9A" transform="translate(113,210)"/>
<path d="M0 0 C-3.00617269 3.00617269 -5.82381598 2.59585316 -10 3 C-7.29536552 -0.8183075 -4.37912428 -0.24787496 0 0 Z " fill="#BB9363" transform="translate(146,194)"/>
<path d="M0 0 C1.65 0.33 3.3 0.66 5 1 C3.35 2.32 1.7 3.64 0 5 C-0.66 4.67 -1.32 4.34 -2 4 C-2 3.34 -2 2.68 -2 2 C-1.34 2 -0.68 2 0 2 C0 1.34 0 0.68 0 0 Z " fill="#C2A278" transform="translate(159,193)"/>
<path d="M0 0 C0.66 0.33 1.32 0.66 2 1 C1.01 2.32 0.02 3.64 -1 5 C-2.32 4.34 -3.64 3.68 -5 3 C-2.625 1.4375 -2.625 1.4375 0 0 Z " fill="#C7AA88" transform="translate(177,172)"/>
<path d="M0 0 C2.64 0 5.28 0 8 0 C7 2 7 2 3.9375 3.125 C2.4834375 3.558125 2.4834375 3.558125 1 4 C0.67 2.68 0.34 1.36 0 0 Z " fill="#C0A179" transform="translate(268,151)"/>
<path d="M0 0 C-0.99 0.66 -1.98 1.32 -3 2 C-3 2.66 -3 3.32 -3 4 C-3.66 4 -4.32 4 -5 4 C-6.625 2 -6.625 2 -8 0 C-5.13822943 -1.43088528 -3.06624227 -0.59991697 0 0 Z " fill="#A3763F" transform="translate(320,124)"/>
</svg>
